# xmcd
#
# Track frame offsets:
#	150
#	11757
#	25419
#	37450
#	51894
#	65761
#	78254
#	91365
#	102452
#	119074
#	132941
#
# Disc length: 1925 seconds
#
# Revision: 1
# Processed by: cddbd v1.4PL0 Copyright (c) Steve Scherf et al.
# Submitted via: audiograbber 1.81.01
#
DISCID=a107830b
DTITLE=Cody Shuler - The Girl At The End Of The Road
DYEAR=2002
DGENRE=Bluegrass
TTITLE0=Some Dark Hollow
TTITLE1=Just A Grain Of Sand
TTITLE2=The Old Home Town
TTITLE3=You Comb Her Hair
TTITLE4=Thirty Pieces Of Silver
TTITLE5=Be My Baby
TTITLE6=Over In Jerusalem
TTITLE7=Dreaming
TTITLE8=Kentucky Waltz
TTITLE9=I'm Building A Bridge
TTITLE10=The Girl At The End Of The Road
EXTD=
EXTT0=
EXTT1=
EXTT2=
EXTT3=
EXTT4=
EXTT5=
EXTT6=
EXTT7=
EXTT8=
EXTT9=
EXTT10=
PLAYORDER=
